Coordinates
version=1
nRows=38
nColumns=12
inDegrees=yes

Units are S.I. units (second, meters, Newtons, ...)
Angles are in degrees

endheader
time	SC_y	SC_z	SC_x	AC_y	AC_z	AC_x	GH_y	GH_z	GH_yy	EL_x	PS_y
       0.0              -11.22          37.77          38.32          37.36         -3.885         -12.47          118.2          43.63          89.15          79.59          90.76
   0.01391              -11.22          37.76          38.32          37.37         -3.883         -12.47          118.2          43.62          89.15          79.59          90.77
   0.02782              -11.22          37.76          38.33          37.37         -3.882         -12.47          118.2          43.62          89.14          79.59          90.77
   0.04172              -11.23          37.75          38.33          37.37          -3.88         -12.46          118.1          43.61          89.13          79.59          90.78
   0.05563              -11.23          37.75          38.34          37.38         -3.878         -12.46          118.1          43.61          89.13          79.58          90.79
   0.06954              -11.23          37.74          38.35          37.38         -3.876         -12.46          118.1           43.6          89.12          79.58           90.8
   0.08345              -11.24          37.73          38.36          37.39         -3.874         -12.46          118.0          43.59          89.11          79.58          90.81
   0.09736              -11.24          37.73          38.37          37.39         -3.872         -12.46          118.0          43.59           89.1          79.57          90.83
    0.1113              -11.24          37.72          38.37          37.39         -3.869         -12.46          118.0          43.58          89.09          79.57          90.84
    0.1252              -11.25          37.71          38.38           37.4         -3.866         -12.46          117.9          43.57          89.09          79.57          90.85
    0.1391              -11.25           37.7           38.4          37.41         -3.864         -12.45          117.9          43.56          89.08          79.56          90.87
     0.153              -11.26          37.69          38.41          37.41         -3.861         -12.45          117.8          43.55          89.06          79.56          90.88
    0.1669              -11.26          37.68          38.42          37.42         -3.857         -12.45          117.8          43.54          89.05          79.55           90.9
    0.1808              -11.27          37.67          38.43          37.43         -3.854         -12.45          117.7          43.53          89.04          79.55          90.92
    0.1947              -11.27          37.65          38.45          37.43          -3.85         -12.45          117.6          43.52          89.03          79.54          90.94
    0.2086              -11.28          37.64          38.46          37.44         -3.846         -12.44          117.6           43.5          89.01          79.53          90.96
    0.2225              -11.29          37.62          38.48          37.45         -3.841         -12.44          117.5          43.49           89.0          79.53          90.98
    0.2364               -11.3          37.61           38.5          37.46         -3.836         -12.44          117.4          43.47          88.98          79.52          91.01
    0.2503              -11.31          37.59          38.52          37.47         -3.831         -12.44          117.3          43.46          88.96          79.51          91.04
    0.2643              -11.32          37.57          38.54          37.48         -3.825         -12.43          117.2          43.44          88.94           79.5          91.07
    0.2782              -11.33          37.55          38.57           37.5         -3.819         -12.43          117.1          43.42          88.92          79.49           91.1
    0.2921              -11.34          37.52          38.59          37.51         -3.812         -12.43          117.0          43.39          88.89          79.48          91.14
     0.306              -11.35           37.5          38.62          37.53         -3.804         -12.42          116.9          43.37          88.86          79.47          91.18
    0.3199              -11.36          37.47          38.65          37.55         -3.795         -12.42          116.8          43.34          88.83          79.46          91.23
    0.3338              -11.38          37.44          38.69          37.56         -3.785         -12.41          116.6          43.31           88.8          79.44          91.28
    0.3477               -11.4           37.4          38.73          37.59         -3.775          -12.4          116.4          43.27          88.76          79.43          91.33
    0.3616              -11.42          37.36          38.78          37.61         -3.762          -12.4          116.2          43.23          88.72          79.41           91.4
    0.3755              -11.44          37.31          38.83          37.64         -3.749         -12.39          116.0          43.19          88.67          79.39          91.47
    0.3894              -11.47          37.26          38.89          37.67         -3.733         -12.38          115.7          43.14          88.61          79.37          91.55
    0.4033              -11.49           37.2          38.95           37.7         -3.716         -12.37          115.5          43.08          88.55          79.34          91.64
    0.4172              -11.53          37.14          39.03          37.75         -3.696         -12.36          115.1          43.02          88.48          79.31          91.74
    0.4312              -11.56          37.06          39.11          37.79         -3.673         -12.35          114.8          42.95           88.4          79.28          91.86
    0.4451              -11.61          36.97          39.21          37.85         -3.647         -12.33          114.3          42.86          88.31          79.24           92.0
     0.459              -11.66          36.87          39.33          37.91         -3.616         -12.32          113.8          42.76           88.2          79.19          92.16
    0.4729              -11.72          36.75          39.46          37.98          -3.58          -12.3          113.3          42.65          88.07          79.14          92.35
    0.4868              -11.79          36.61          39.62          38.07         -3.538         -12.27          112.6          42.51          87.92          79.08          92.57
    0.5007              -11.87          36.44          39.81          38.17         -3.488         -12.24          111.7          42.35          87.74           79.0          92.83
    0.5146              -11.97          36.24          40.04          38.29         -3.428         -12.21          110.8          42.16          87.53          78.91          93.14
